<?xml version="1.0" standalone="no"?>
<!DOCTYPE svg PUBLIC "-//W3C//DTD SVG 20010904//EN"
 "http://www.w3.org/TR/2001/REC-SVG-20010904/DTD/svg10.dtd">
<svg version="1.0" xmlns="http://www.w3.org/2000/svg"
 width="121.000000pt" height="121.000000pt" viewBox="0 0 121.000000 121.000000"
 preserveAspectRatio="xMidYMid meet">
<metadata>
Created by potrace 1.14, written by Peter Selinger 2001-2017
</metadata>
<g transform="translate(0.000000,121.000000) scale(0.100000,-0.100000)"
fill="#000000" stroke="none">
<path d="M461 1173 c-1 -17 6 -39 15 -47 20 -20 30 -21 14 -1 -7 8 -16 30 -20
48 l-8 32 -1 -32z"/>
<path d="M582 1163 c21 -20 40 -34 44 -31 7 7 -56 67 -71 68 -5 0 7 -17 27
-37z"/>
<path d="M667 1160 c-15 -25 -16 -29 -3 -24 9 3 14 10 11 14 -3 5 -1 11 4 14
5 4 12 -7 16 -24 4 -16 10 -30 15 -30 4 0 3 18 -2 40 -6 22 -13 40 -17 40 -4
0 -15 -13 -24 -30z"/>
<path d="M521 1164 c0 -11 3 -14 6 -6 3 7 2 16 -1 19 -3 4 -6 -2 -5 -13z"/>
<path d="M393 1135 c8 -26 16 -35 31 -34 16 1 17 2 4 6 -9 2 -20 17 -23 34 -4
16 -10 29 -15 29 -4 0 -3 -16 3 -35z"/>
<path d="M784 1124 c-5 -18 -1 -31 12 -42 17 -16 17 -16 5 0 -17 23 -5 56 22
61 18 4 18 4 -5 6 -22 1 -29 -4 -34 -25z"/>
<path d="M261 1069 c-325 -217 -343 -685 -36 -937 134 -109 330 -153 500 -111
61 15 176 65 174 76 -3 19 2 33 12 33 8 0 8 -5 -1 -15 -8 -10 -9 -15 -2 -15
20 0 150 134 180 185 40 69 70 154 76 212 5 45 5 46 -5 13 -52 -182 -59 -197
-78 -162 -6 11 -40 38 -76 62 -36 23 -65 47 -66 54 0 6 -2 18 -4 26 -1 8 -8
41 -14 73 -6 32 -20 70 -31 84 -11 14 -20 35 -20 47 0 12 -11 38 -25 58 -14
20 -25 41 -25 47 0 5 -11 22 -24 38 -22 26 -24 37 -21 95 3 44 0 70 -9 83 -12
17 -13 14 -13 -22 0 -55 -10 -69 -31 -45 -34 38 -69 52 -138 56 -73 4 -99 -5
-140 -51 -20 -22 -22 -22 -29 -6 -4 10 -7 34 -6 53 1 25 -1 31 -8 20 -13 -22
-20 -100 -9 -100 6 0 8 8 4 18 -4 14 -3 14 7 -2 44 -69 84 -97 156 -111 65
-12 165 43 197 110 l14 30 -4 -37 c-7 -58 -34 -104 -79 -134 -34 -23 -53 -28
-104 -29 -52 0 -67 4 -104 30 -24 17 -52 49 -66 75 -18 35 -22 40 -21 20 2
-36 -29 -95 -57 -108 -24 -11 -27 -18 -29 -67 -1 -12 -10 -34 -20 -50 -12 -18
-19 -44 -18 -68 1 -21 -3 -48 -9 -59 -22 -40 -27 -376 -6 -389 5 -4 5 -9 -2
-13 -6 -4 -11 -2 -11 3 0 6 -5 11 -12 11 -21 0 -106 102 -142 170 -136 258
-66 553 172 731 28 22 62 44 75 49 15 6 17 9 6 9 -9 1 -44 -17 -78 -40z m381
-221 c-12 -12 -111 -13 -123 -1 -14 14 21 54 49 56 12 1 22 5 22 11 0 5 14 -6
31 -23 20 -21 28 -36 21 -43z m128 -48 c0 -5 -5 -10 -11 -10 -5 0 -7 5 -4 10
3 6 8 10 11 10 2 0 4 -4 4 -10z m-366 -53 c7 -6 6 -7 -4 -4 -8 2 -16 12 -17
23 -2 13 -1 15 4 4 3 -8 11 -19 17 -23z m176 8 c25 0 57 3 72 7 26 8 26 8 16
-30 -5 -20 -14 -42 -19 -48 -10 -13 6 -78 24 -92 6 -5 40 -21 74 -35 34 -14
82 -40 106 -59 37 -28 42 -36 33 -51 -9 -13 -5 -22 18 -44 22 -21 27 -23 22
-9 -3 10 -1 25 5 32 9 11 19 8 58 -18 97 -65 105 -80 71 -128 -11 -15 -16 -31
-12 -35 4 -5 2 -5 -4 -2 -11 6 -58 -30 -157 -123 -45 -42 -117 -86 -117 -72 0
7 137 189 168 222 28 30 49 66 33 56 -5 -4 -50 13 -98 37 -52 25 -98 41 -111
39 -25 -4 -26 -17 -7 -94 10 -38 -17 -78 -51 -78 -30 0 -80 24 -87 42 -4 9 -6
9 -6 1 -1 -18 57 -55 85 -55 24 0 25 -2 17 -42 -4 -22 -8 -65 -7 -93 0 -43 -3
-54 -18 -59 -33 -10 -162 -7 -219 6 l-55 12 0 67 c0 36 -3 78 -7 93 -7 26 -6
27 25 22 37 -6 99 22 106 46 3 9 -3 7 -16 -7 -26 -27 -74 -38 -101 -23 -27 14
-37 56 -23 92 5 15 7 28 2 28 -9 0 -17 -30 -26 -105 -7 -60 -10 -87 -19 -142
l-7 -43 -39 20 -39 20 6 53 c3 28 7 58 9 65 3 7 7 54 10 105 10 151 35 193
125 212 60 13 107 42 114 71 5 20 10 24 19 15 17 -17 52 -13 72 9 10 11 13 20
7 20 -7 0 -12 -4 -12 -9 0 -19 -41 -23 -65 -7 -32 21 -53 53 -60 94 -5 31 -4
33 17 25 13 -4 43 -8 68 -8z m-110 -116 c0 -6 -4 -7 -10 -4 -5 3 -10 11 -10
16 0 6 5 7 10 4 6 -3 10 -11 10 -16z m356 -55 c-16 -18 -40 4 -25 22 8 10 14
10 23 1 9 -8 10 -15 2 -23z m-456 -2 c0 -13 -12 -22 -22 -16 -10 6 -1 24 13
24 5 0 9 -4 9 -8z m550 -136 c0 -3 -4 -8 -10 -11 -5 -3 -10 -1 -10 4 0 6 5 11
10 11 6 0 10 -2 10 -4z m-156 -71 c-4 -8 -8 -15 -10 -15 -2 0 -4 7 -4 15 0 8
4 15 10 15 5 0 7 -7 4 -15z m-479 -25 c-3 -5 -12 -10 -18 -10 -7 0 -6 4 3 10
19 12 23 12 15 0z m664 -37 c6 -3 -201 -273 -210 -273 -5 0 -9 8 -9 18 0 13 2
14 9 4 6 -10 10 -4 14 18 4 18 27 52 58 83 65 66 80 95 88 170 1 4 11 2 24 -5
12 -7 24 -14 26 -15z m-119 3 c0 -11 -19 -15 -25 -6 -3 5 1 10 9 10 9 0 16 -2
16 -4z m154 -141 c-27 -24 -53 -44 -59 -44 -12 0 87 89 99 89 6 0 -12 -20 -40
-45z m-180 23 c-7 -10 -34 -10 -34 0 0 4 9 8 19 8 11 0 17 -4 15 -8z m-418
-115 c-3 -4 -1 -12 5 -19 8 -9 5 -11 -10 -7 -23 6 -24 7 -14 42 5 20 7 21 15
6 6 -9 7 -19 4 -22z"/>
<path d="M568 728 c5 -5 16 -8 23 -6 8 3 3 7 -10 11 -17 4 -21 3 -13 -5z"/>
<path d="M565 685 c21 -17 37 -15 43 3 2 8 -8 12 -30 12 -31 -1 -32 -1 -13
-15z"/>
<path d="M695 540 c-16 -7 -17 -9 -3 -9 9 -1 20 4 23 9 7 11 7 11 -20 0z"/>
<path d="M485 530 c-39 -6 -39 -6 18 -11 31 -2 57 -3 57 -2 0 11 -43 18 -75
13z"/>
<path d="M616 531 c-3 -4 8 -8 24 -7 17 1 30 4 30 9 0 10 -48 9 -54 -2z"/>
<path d="M430 280 c0 -5 5 -10 11 -10 5 0 7 5 4 10 -3 6 -8 10 -11 10 -2 0 -4
-4 -4 -10z"/>
<path d="M700 280 c0 -5 5 -10 10 -10 6 0 10 5 10 10 0 6 -4 10 -10 10 -5 0
-10 -4 -10 -10z"/>
<path d="M560 225 c0 -8 4 -15 10 -15 5 0 7 7 4 15 -4 8 -8 15 -10 15 -2 0 -4
-7 -4 -15z"/>
<path d="M877 1092 c-10 -10 -17 -25 -17 -33 0 -9 5 -7 12 6 6 11 19 25 27 32
9 7 11 13 5 13 -6 0 -18 -8 -27 -18z"/>
<path d="M930 1083 c18 -29 -3 -57 -38 -50 -17 3 -20 1 -13 -6 17 -17 65 4 69
29 2 11 -5 27 -14 35 -16 13 -16 12 -4 -8z"/>
<path d="M970 1040 c-12 -7 -10 -9 7 -7 12 0 19 5 17 9 -6 10 -6 10 -24 -2z"/>
<path d="M969 1001 c12 -22 5 -32 -17 -24 -14 4 -14 3 -3 -5 15 -11 41 -5 41
8 0 17 -12 40 -21 40 -6 0 -6 -8 0 -19z"/>
<path d="M1035 975 c-3 -11 -11 -31 -16 -44 -5 -13 -8 -26 -5 -28 7 -7 37 69
32 81 -2 6 -7 2 -11 -9z"/>
<path d="M1063 909 c1 -4 -7 -15 -18 -23 -11 -8 -15 -15 -10 -16 6 0 24 11 40
24 27 23 28 25 8 23 -12 -1 -21 -4 -20 -8z"/>
<path d="M1083 862 c-38 -18 -39 -21 -17 -48 15 -18 15 -18 5 3 -12 23 0 40
19 28 6 -3 10 -1 10 4 0 15 27 14 33 -1 4 -8 6 -9 6 -2 2 25 -24 32 -56 16z"/>
<path d="M1120 774 l-35 -12 42 1 c24 1 43 5 43 9 0 14 -16 15 -50 2z"/>
<path d="M1128 713 c-10 -2 -18 -8 -18 -13 0 -8 57 6 69 16 6 5 -29 3 -51 -3z"/>
<path d="M1133 662 c-10 -9 -13 -13 -6 -8 7 4 24 5 38 2 30 -8 33 -1 6 14 -15
7 -24 6 -38 -8z"/>
<path d="M1187 621 c-4 -17 -3 -21 5 -13 5 5 8 16 6 23 -3 8 -7 3 -11 -10z"/>
<path d="M1110 621 c0 -6 4 -13 10 -16 6 -3 7 1 4 9 -7 18 -14 21 -14 7z"/>
</g>
</svg>
